<?xml version="1.0" encoding="UTF-8" standalone="no"?>
<svg
   xmlns:dc="http://purl.org/dc/elements/1.1/"
   xmlns:cc="http://creativecommons.org/ns#"
   xmlns:rdf="http://www.w3.org/1999/02/22-rdf-syntax-ns#"
   xmlns:svg="http://www.w3.org/2000/svg"
   xmlns="http://www.w3.org/2000/svg"
   xmlns:sodipodi="http://sodipodi.sourceforge.net/DTD/sodipodi-0.dtd"
   xmlns:inkscape="http://www.inkscape.org/namespaces/inkscape"
   inkscape:version="1.0 (4035a4fb49, 2020-05-01)"
   sodipodi:docname="cart.svg"
   id="svg11"
   xml:space="preserve"
   width="24px"
   viewBox="0 0 24 24"
   version="1.2"
   height="24px"><metadata
     id="metadata17"><rdf:RDF><cc:Work
         rdf:about=""><dc:format>image/svg+xml</dc:format><dc:type
           rdf:resource="http://purl.org/dc/dcmitype/StillImage" /><dc:title></dc:title></cc:Work></rdf:RDF></metadata><defs
     id="defs15" /><sodipodi:namedview
     inkscape:current-layer="svg11"
     inkscape:window-maximized="1"
     inkscape:window-y="-8"
     inkscape:window-x="-8"
     inkscape:cy="12"
     inkscape:cx="12"
     inkscape:zoom="26.166667"
     inkscape:pagecheckerboard="true"
     showgrid="false"
     id="namedview13"
     inkscape:window-height="837"
     inkscape:window-width="1600"
     inkscape:pageshadow="2"
     inkscape:pageopacity="0"
     guidetolerance="10"
     gridtolerance="10"
     objecttolerance="10"
     borderopacity="1"
     bordercolor="#666666"
     pagecolor="#ffffff" /><g
     style="stroke:#ffffff;stroke-opacity:0;fill:#ffffff"
     id="Layer_1"><g
       style="stroke:#ffffff;stroke-opacity:0;fill:#ffffff"
       id="g8"><path
         style="stroke:#ffffff;stroke-opacity:0;fill:#ffffff"
         id="path2"
         d="M20.756,5.345C20.565,5.126,20.29,5,20,5H6.181L5.986,3.836C5.906,3.354,5.489,3,5,3H2.75c-0.553,0-1,0.447-1,1    s0.447,1,1,1h1.403l1.86,11.164c0.008,0.045,0.031,0.082,0.045,0.124c0.016,0.053,0.029,0.103,0.054,0.151    c0.032,0.066,0.075,0.122,0.12,0.179c0.031,0.039,0.059,0.078,0.095,0.112c0.058,0.054,0.125,0.092,0.193,0.13    c0.038,0.021,0.071,0.049,0.112,0.065C6.748,16.972,6.87,17,6.999,17C7,17,18,17,18,17c0.553,0,1-0.447,1-1s-0.447-1-1-1H7.847    l-0.166-1H19c0.498,0,0.92-0.366,0.99-0.858l1-7C21.031,5.854,20.945,5.563,20.756,5.345z M18.847,7l-0.285,2H15V7H18.847z M14,7    v2h-3V7H14z M14,10v2h-3v-2H14z M10,7v2H7C6.947,9,6.899,9.015,6.852,9.03L6.514,7H10z M7.014,10H10v2H7.347L7.014,10z M15,12v-2    h3.418l-0.285,2H15z" /><circle
         style="stroke:#ffffff;stroke-opacity:0;fill:#ffffff"
         id="circle4"
         r="1.5"
         cy="19.5"
         cx="8.5" /><circle
         style="stroke:#ffffff;stroke-opacity:0;fill:#ffffff"
         id="circle6"
         r="1.5"
         cy="19.5"
         cx="17.5" /></g></g><path
     id="path19"
     d="M 6.5816488,16.86964 C 6.3600665,16.759221 6.2123809,16.603779 6.1098187,16.373028 6.0667575,16.276146 5.6937955,14.133749 5.1218513,10.697869 4.6165156,7.6621303 4.1932655,5.131051 4.1812956,5.0732484 L 4.1595321,4.9681529 h -0.819847 c -0.9143686,0 -0.9704103,-0.011407 -1.2363213,-0.2516414 C 1.9133254,4.5448232 1.8131013,4.3618745 1.7769245,4.1206306 1.7214302,3.7505684 1.9547655,3.3110817 2.306654,3.1228857 2.4600409,3.0408517 2.5062586,3.037862 3.7916395,3.0268248 c 0.8622667,-0.0074 1.3800941,0.00299 1.4792848,0.029703 0.2318247,0.062424 0.4652519,0.2616698 0.584903,0.4992542 0.076889,0.1526741 0.1323535,0.374802 0.2070156,0.8290712 l 0.101987,0.6205216 7.0354191,0.010052 c 7.799728,0.011144 7.142194,-0.011766 7.451279,0.2596143 0.177002,0.1554098 0.289057,0.3694411 0.315891,0.6033695 0.02291,0.1997313 -0.94034,7.0598124 -1.041236,7.4154704 -0.04285,0.151049 -0.10634,0.252974 -0.242211,0.388845 -0.328384,0.328384 0.164648,0.304536 -6.296004,0.304536 -5.4093228,0 -5.706426,0.0035 -5.706186,0.06688 1.529e-4,0.03678 0.03442,0.26465 0.07618,0.50637 0.04176,0.241719 0.07604,0.443549 0.07618,0.448511 1.529e-4,0.005 2.352004,0.01356 5.226368,0.01911 l 5.226114,0.01009 0.156485,0.08374 c 0.420606,0.225069 0.62305,0.696184 0.493028,1.14734 -0.05053,0.175317 -0.105846,0.262153 -0.266908,0.418965 -0.124288,0.121009 -0.260261,0.213663 -0.350213,0.23864 -0.101259,0.02812 -1.920642,0.0409 -5.84336,0.04104 l -5.696317,2.13e-4 z M 10.012739,10.987261 V 9.9745223 H 8.500148 6.9875576 l 0.021528,0.1050957 c 0.01184,0.0578 0.0821,0.474841 0.1561337,0.926751 0.074034,0.451911 0.1434287,0.860351 0.1542115,0.907644 L 7.3390357,12 h 1.3368516 1.3368517 z m 4.012739,0 V 9.9745223 H 12.496815 10.968153 V 10.987261 12 h 1.528662 1.528663 z m 4.127388,0.998871 c 0,-0.0076 0.06019,-0.431324 0.133758,-0.941546 0.07357,-0.510222 0.133758,-0.959714 0.133758,-0.99887 0,-0.068392 -0.06767,-0.071194 -1.719745,-0.071194 H 14.980892 V 10.987261 12 h 1.585987 c 0.872293,0 1.585987,-0.0062 1.585987,-0.01387 z M 10.012739,8.0055443 V 6.9936306 H 8.2517404 6.4907423 l 0.021528,0.1050955 c 0.01184,0.057803 0.082274,0.4748408 0.1565197,0.9267516 0.074246,0.4519108 0.1437294,0.8646497 0.1544083,0.9171975 l 0.019416,0.095541 1.585062,-0.010379 1.5850627,-0.010379 z m 4.012739,8.255e-4 V 6.993631 h -1.528663 -1.528662 v 1.0127388 1.0127389 h 1.528662 1.528663 z m 4.548962,1.0031847 c 6.57e-4,-0.00525 0.06646,-0.4609872 0.146223,-1.0127388 l 0.145032,-1.0031851 h -1.942401 -1.942402 v 1.0127388 1.0127389 h 1.796178 c 0.987898,0 1.796715,-0.0043 1.79737,-0.00955 z"
     style="opacity:0;fill:#ffffff;fill-rule:evenodd;stroke:#000000;stroke-width:1.1465" /><path
     id="path21"
     d="M 6.5816488,16.86964 C 6.3600665,16.759221 6.2123809,16.603779 6.1098187,16.373028 6.0667575,16.276146 5.6937955,14.133749 5.1218513,10.697869 4.6165156,7.6621303 4.1932655,5.131051 4.1812956,5.0732484 L 4.1595321,4.9681529 h -0.819847 c -0.9143686,0 -0.9704103,-0.011407 -1.2363213,-0.2516414 C 1.9133254,4.5448232 1.8131013,4.3618745 1.7769245,4.1206306 1.7214302,3.7505684 1.9547655,3.3110817 2.306654,3.1228857 2.4600409,3.0408517 2.5062586,3.037862 3.7916395,3.0268248 c 0.8622667,-0.0074 1.3800941,0.00299 1.4792848,0.029703 0.2318247,0.062424 0.4652519,0.2616698 0.584903,0.4992542 0.076889,0.1526741 0.1323535,0.374802 0.2070156,0.8290712 l 0.101987,0.6205216 7.0354191,0.010052 c 7.799728,0.011144 7.142194,-0.011766 7.451279,0.2596143 0.177002,0.1554098 0.289057,0.3694411 0.315891,0.6033695 0.02291,0.1997313 -0.94034,7.0598124 -1.041236,7.4154704 -0.04285,0.151049 -0.10634,0.252974 -0.242211,0.388845 -0.328384,0.328384 0.164648,0.304536 -6.296004,0.304536 -5.4093228,0 -5.706426,0.0035 -5.706186,0.06688 1.529e-4,0.03678 0.03442,0.26465 0.07618,0.50637 0.04176,0.241719 0.07604,0.443549 0.07618,0.448511 1.529e-4,0.005 2.352004,0.01356 5.226368,0.01911 l 5.226114,0.01009 0.156485,0.08374 c 0.420606,0.225069 0.62305,0.696184 0.493028,1.14734 -0.05053,0.175317 -0.105846,0.262153 -0.266908,0.418965 -0.124288,0.121009 -0.260261,0.213663 -0.350213,0.23864 -0.101259,0.02812 -1.920642,0.0409 -5.84336,0.04104 l -5.696317,2.13e-4 z M 10.012739,10.987261 V 9.9745223 H 8.500148 6.9875576 l 0.021528,0.1050957 c 0.01184,0.0578 0.0821,0.474841 0.1561337,0.926751 0.074034,0.451911 0.1434287,0.860351 0.1542115,0.907644 L 7.3390357,12 h 1.3368516 1.3368517 z m 4.012739,0 V 9.9745223 H 12.496815 10.968153 V 10.987261 12 h 1.528662 1.528663 z m 4.127388,0.998871 c 0,-0.0076 0.06019,-0.431324 0.133758,-0.941546 0.07357,-0.510222 0.133758,-0.959714 0.133758,-0.99887 0,-0.068392 -0.06767,-0.071194 -1.719745,-0.071194 H 14.980892 V 10.987261 12 h 1.585987 c 0.872293,0 1.585987,-0.0062 1.585987,-0.01387 z M 10.012739,8.0055443 V 6.9936306 H 8.2517404 6.4907423 l 0.021528,0.1050955 c 0.01184,0.057803 0.082274,0.4748408 0.1565197,0.9267516 0.074246,0.4519108 0.1437294,0.8646497 0.1544083,0.9171975 l 0.019416,0.095541 1.585062,-0.010379 1.5850627,-0.010379 z m 4.012739,8.255e-4 V 6.993631 h -1.528663 -1.528662 v 1.0127388 1.0127389 h 1.528662 1.528663 z m 4.548962,1.0031847 c 6.57e-4,-0.00525 0.06646,-0.4609872 0.146223,-1.0127388 l 0.145032,-1.0031851 h -1.942401 -1.942402 v 1.0127388 1.0127389 h 1.796178 c 0.987898,0 1.796715,-0.0043 1.79737,-0.00955 z"
     style="opacity:0;fill:#ffffff;fill-rule:evenodd;stroke:#000000;stroke-width:1.1465" /></svg>
