<?xml version="1.0" encoding="UTF-8" standalone="no"?>
<svg
   xmlns:dc="http://purl.org/dc/elements/1.1/"
   xmlns:cc="http://creativecommons.org/ns#"
   xmlns:rdf="http://www.w3.org/1999/02/22-rdf-syntax-ns#"
   xmlns:svg="http://www.w3.org/2000/svg"
   xmlns="http://www.w3.org/2000/svg"
   xmlns:sodipodi="http://sodipodi.sourceforge.net/DTD/sodipodi-0.dtd"
   xmlns:inkscape="http://www.inkscape.org/namespaces/inkscape"
   inkscape:version="1.0 (4035a4fb49, 2020-05-01)"
   sodipodi:docname="facebook.svg"
   id="svg4"
   xml:space="preserve"
   width="100%"
   viewBox="0 0 512 512"
   version="1.1"
   style="fill-rule:evenodd;clip-rule:evenodd;stroke-linejoin:round;stroke-miterlimit:2;"
   height="100%"><metadata
     id="metadata10"><rdf:RDF><cc:Work
         rdf:about=""><dc:format>image/svg+xml</dc:format><dc:type
           rdf:resource="http://purl.org/dc/dcmitype/StillImage" /></cc:Work></rdf:RDF></metadata><defs
     id="defs8" /><sodipodi:namedview
     inkscape:current-layer="svg4"
     inkscape:window-maximized="1"
     inkscape:window-y="-8"
     inkscape:window-x="-8"
     inkscape:cy="349.67873"
     inkscape:cx="17.54919"
     inkscape:zoom="0.61328125"
     showgrid="false"
     id="namedview6"
     inkscape:window-height="837"
     inkscape:window-width="1600"
     inkscape:pageshadow="2"
     inkscape:pageopacity="0"
     guidetolerance="10"
     gridtolerance="10"
     objecttolerance="10"
     borderopacity="1"
     bordercolor="#666666"
     pagecolor="#ffffff" /><path
     style="fill:#ffffff"
     id="path2"
     d="M449.446,0c34.525,0 62.554,28.03 62.554,62.554l0,386.892c0,34.524 -28.03,62.554 -62.554,62.554l-106.468,0l0,-192.915l66.6,0l12.672,-82.621l-79.272,0l0,-53.617c0,-22.603 11.073,-44.636 46.58,-44.636l36.042,0l0,-70.34c0,0 -32.71,-5.582 -63.982,-5.582c-65.288,0 -107.96,39.569 -107.96,111.204l0,62.971l-72.573,0l0,82.621l72.573,0l0,192.915l-191.104,0c-34.524,0 -62.554,-28.03 -62.554,-62.554l0,-386.892c0,-34.524 28.029,-62.554 62.554,-62.554l386.892,0Z" /><path
     id="path12"
     d="M 55.697421,511.1622 C 39.67225,509.47559 23.129235,500.1813 13.474723,487.44041 8.7828651,481.24865 4.0178191,471.36828 1.9242826,463.49045 0.46507895,457.99956 0.40764331,450.14184 0.40764331,256 0.40764331,28.411121 -0.22957664,50.072854 6.8950893,35.464968 13.339482,22.251865 23.003823,12.725729 36.367962,6.4135754 50.277009,-0.15594972 29.705125,0.40764331 255.59236,0.40764331 c 227.49603,0 206.94937,-0.60759351 221.19728,6.54111579 16.71647,8.3872809 28.32063,22.8761609 33.28608,41.5607949 1.4592,5.490881 1.51664,13.348608 1.51664,207.490446 0,194.14184 -0.0575,201.99956 -1.51664,207.49045 -5.01496,18.87093 -16.84626,33.53329 -33.54069,41.5665 -13.85977,6.6692 -10.70699,6.38822 -75.61783,6.73893 l -57.68153,0.31165 v -96.25758 -96.25759 h 33.42675 c 18.38471,0 33.42675,-0.30777 33.42675,-0.68391 0,-0.37615 2.75128,-18.62838 6.11397,-40.56051 3.36269,-21.93214 6.11428,-40.3352 6.11465,-40.89571 5.3e-4,-0.80131 -8.4625,-1.01911 -39.5994,-1.01911 H 343.1183 l 0.27607,-32 0.27608,-32 2.22778,-6.33358 c 3.72413,-10.58772 9.03122,-17.11192 17.61579,-21.65576 9.41898,-4.9855 11.34346,-5.27292 37.81082,-5.64711 l 24.25478,-0.34291 v -35.33755 c 0,-32.944424 -0.0966,-35.367201 -1.42675,-35.775523 -1.84586,-0.566641 -17.38054,-2.547966 -30.36943,-3.873381 -15.47836,-1.579445 -46.77748,-1.409993 -55.84713,0.302354 -11.62568,2.194922 -21.3636,5.282405 -30.21974,9.581401 -27.87957,13.533448 -45.18272,37.692909 -52.27797,72.992889 -1.07071,5.32696 -1.37326,14.17986 -1.65085,48.30573 l -0.33988,41.78344 h -36.22712 -36.22712 v 41.57962 41.57962 h 36.28026 36.28025 V 415.79618 512 l -96,-0.1107 c -52.8,-0.0609 -98.635523,-0.38808 -101.856719,-0.7271 z"
     style="opacity:0;fill:#ffffff;fill-rule:evenodd;stroke:#000000;stroke-width:24.4586" /><path
     id="path14"
     d="M 55.697421,511.1622 C 39.67225,509.47559 23.129235,500.1813 13.474723,487.44041 8.7828651,481.24865 4.0178191,471.36828 1.9242826,463.49045 0.46507895,457.99956 0.40764331,450.14184 0.40764331,256 0.40764331,28.411121 -0.22957664,50.072854 6.8950893,35.464968 13.339482,22.251865 23.003823,12.725729 36.367962,6.4135754 50.277009,-0.15594972 29.705125,0.40764331 255.59236,0.40764331 c 227.49603,0 206.94937,-0.60759351 221.19728,6.54111579 16.71647,8.3872809 28.32063,22.8761609 33.28608,41.5607949 1.4592,5.490881 1.51664,13.348608 1.51664,207.490446 0,194.14184 -0.0575,201.99956 -1.51664,207.49045 -5.01496,18.87093 -16.84626,33.53329 -33.54069,41.5665 -13.85977,6.6692 -10.70699,6.38822 -75.61783,6.73893 l -57.68153,0.31165 v -96.25758 -96.25759 h 33.42675 c 18.38471,0 33.42675,-0.30777 33.42675,-0.68391 0,-0.37615 2.75128,-18.62838 6.11397,-40.56051 3.36269,-21.93214 6.11428,-40.3352 6.11465,-40.89571 5.3e-4,-0.80131 -8.4625,-1.01911 -39.5994,-1.01911 H 343.1183 l 0.27607,-32 0.27608,-32 2.22778,-6.33358 c 3.72413,-10.58772 9.03122,-17.11192 17.61579,-21.65576 9.41898,-4.9855 11.34346,-5.27292 37.81082,-5.64711 l 24.25478,-0.34291 v -35.33755 c 0,-32.944424 -0.0966,-35.367201 -1.42675,-35.775523 -1.84586,-0.566641 -17.38054,-2.547966 -30.36943,-3.873381 -15.47836,-1.579445 -46.77748,-1.409993 -55.84713,0.302354 -11.62568,2.194922 -21.3636,5.282405 -30.21974,9.581401 -27.87957,13.533448 -45.18272,37.692909 -52.27797,72.992889 -1.07071,5.32696 -1.37326,14.17986 -1.65085,48.30573 l -0.33988,41.78344 h -36.22712 -36.22712 v 41.57962 41.57962 h 36.28026 36.28025 V 415.79618 512 l -96,-0.1107 c -52.8,-0.0609 -98.635523,-0.38808 -101.856719,-0.7271 z"
     style="opacity:0;fill:#ffffff;fill-rule:evenodd;stroke:#000000;stroke-width:24.4586" /><path
     id="path839"
     d="M 55.697421,511.1622 C 39.67225,509.47559 23.129235,500.1813 13.474723,487.44041 8.7828651,481.24865 4.0178191,471.36828 1.9242826,463.49045 0.46507895,457.99956 0.40764331,450.14184 0.40764331,256 0.40764331,28.411121 -0.22957664,50.072854 6.8950893,35.464968 13.339482,22.251865 23.003823,12.725729 36.367962,6.4135754 50.277009,-0.15594972 29.705125,0.40764331 255.59236,0.40764331 c 227.49603,0 206.94937,-0.60759351 221.19728,6.54111579 16.71647,8.3872809 28.32063,22.8761609 33.28608,41.5607949 1.4592,5.490881 1.51664,13.348608 1.51664,207.490446 0,194.14184 -0.0575,201.99956 -1.51664,207.49045 -5.01496,18.87093 -16.84626,33.53329 -33.54069,41.5665 -13.85977,6.6692 -10.70699,6.38822 -75.61783,6.73893 l -57.68153,0.31165 v -96.25758 -96.25759 h 33.42675 c 18.38471,0 33.42675,-0.30777 33.42675,-0.68391 0,-0.37615 2.75128,-18.62838 6.11397,-40.56051 3.36269,-21.93214 6.11428,-40.3352 6.11465,-40.89571 5.3e-4,-0.80131 -8.4625,-1.01911 -39.5994,-1.01911 H 343.1183 l 0.27607,-32 0.27608,-32 2.22778,-6.33358 c 3.72413,-10.58772 9.03122,-17.11192 17.61579,-21.65576 9.41898,-4.9855 11.34346,-5.27292 37.81082,-5.64711 l 24.25478,-0.34291 v -35.33755 c 0,-32.944424 -0.0966,-35.367201 -1.42675,-35.775523 -1.84586,-0.566641 -17.38054,-2.547966 -30.36943,-3.873381 -15.47836,-1.579445 -46.77748,-1.409993 -55.84713,0.302354 -11.62568,2.194922 -21.3636,5.282405 -30.21974,9.581401 -27.87957,13.533448 -45.18272,37.692909 -52.27797,72.992889 -1.07071,5.32696 -1.37326,14.17986 -1.65085,48.30573 l -0.33988,41.78344 h -36.22712 -36.22712 v 41.57962 41.57962 h 36.28026 36.28025 V 415.79618 512 l -96,-0.1107 c -52.8,-0.0609 -98.635523,-0.38808 -101.856719,-0.7271 z"
     style="opacity:0;fill:#ffffff;fill-rule:evenodd;stroke:#000000;stroke-width:24.4586" /><path
     id="path841"
     d="M 46.084222,508.81917 C 28.621562,503.28197 14.294508,491.16197 6.5261354,475.35493 L 2.0587446,466.26471 V 255.92076 45.576815 L 7.2216603,35.793376 C 13.868124,23.198694 25.582966,11.877706 37.931356,6.1161385 L 47.714796,1.5513376 252.23589,1.1128157 C 477.92187,0.62891313 465.8565,0.1219603 482.62516,10.793138 492.92935,17.350497 499.64444,25.301922 505.73852,38.162 l 5.05908,10.675962 0.45004,202.191078 c 0.29335,131.80438 -0.12376,204.87529 -1.1983,209.90164 -4.07317,19.05368 -18.07883,36.78727 -35.50221,44.95199 l -9.40558,4.40752 -60.73886,0.49861 -60.73885,0.49862 v -95.47951 -95.4795 h 33.42675 c 18.38471,0 33.42675,-0.63567 33.42675,-1.4126 0,-2.09297 11.28548,-75.42978 12.26597,-79.70842 l 0.84074,-3.66879 h -39.9801 -39.98011 v -29.86966 c 0,-33.8406 1.78156,-43.11154 10.1067,-52.59334 9.92887,-11.30835 15.09374,-12.82776 45.74043,-13.4559 l 27.31211,-0.5598 v -35.62529 c 0,-32.524276 -0.24839,-35.697848 -2.85351,-36.458802 -17.35171,-5.068433 -76.59808,-6.359924 -94.1656,-2.052683 -27.66304,6.782479 -51.05315,24.415734 -63.01722,47.507195 -11.45054,22.10029 -14.43501,40.71763 -14.43501,90.0464 v 33.06188 h -35.87261 -35.87261 v 42.3949 42.39491 h 35.87261 35.87261 v 95.38853 95.38854 l -99.87261,-0.10909 C 76.580093,510.91356 51.040894,510.39088 46.084222,508.81917 Z"
     style="opacity:0;fill:#ffffff;fill-rule:evenodd;stroke:#000000;stroke-width:48.9172" /><path
     id="path843"
     d="M 46.084222,508.81917 C 28.621562,503.28197 14.294508,491.16197 6.5261354,475.35493 L 2.0587446,466.26471 V 255.92076 45.576815 L 7.2216603,35.793376 C 13.868124,23.198694 25.582966,11.877706 37.931356,6.1161385 L 47.714796,1.5513376 252.23589,1.1128157 C 477.92187,0.62891313 465.8565,0.1219603 482.62516,10.793138 492.92935,17.350497 499.64444,25.301922 505.73852,38.162 l 5.05908,10.675962 0.45004,202.191078 c 0.29335,131.80438 -0.12376,204.87529 -1.1983,209.90164 -4.07317,19.05368 -18.07883,36.78727 -35.50221,44.95199 l -9.40558,4.40752 -60.73886,0.49861 -60.73885,0.49862 v -95.47951 -95.4795 h 33.42675 c 18.38471,0 33.42675,-0.63567 33.42675,-1.4126 0,-2.09297 11.28548,-75.42978 12.26597,-79.70842 l 0.84074,-3.66879 h -39.9801 -39.98011 v -29.86966 c 0,-33.8406 1.78156,-43.11154 10.1067,-52.59334 9.92887,-11.30835 15.09374,-12.82776 45.74043,-13.4559 l 27.31211,-0.5598 v -35.62529 c 0,-32.524276 -0.24839,-35.697848 -2.85351,-36.458802 -17.35171,-5.068433 -76.59808,-6.359924 -94.1656,-2.052683 -27.66304,6.782479 -51.05315,24.415734 -63.01722,47.507195 -11.45054,22.10029 -14.43501,40.71763 -14.43501,90.0464 v 33.06188 h -35.87261 -35.87261 v 42.3949 42.39491 h 35.87261 35.87261 v 95.38853 95.38854 l -99.87261,-0.10909 C 76.580093,510.91356 51.040894,510.39088 46.084222,508.81917 Z"
     style="opacity:0;fill:#ffffff;fill-rule:evenodd;stroke:#000000;stroke-width:48.9172" /></svg>
