<?xml version="1.0" encoding="UTF-8" standalone="no"?>
<svg
   xmlns:dc="http://purl.org/dc/elements/1.1/"
   xmlns:cc="http://creativecommons.org/ns#"
   xmlns:rdf="http://www.w3.org/1999/02/22-rdf-syntax-ns#"
   xmlns:svg="http://www.w3.org/2000/svg"
   xmlns="http://www.w3.org/2000/svg"
   xmlns:sodipodi="http://sodipodi.sourceforge.net/DTD/sodipodi-0.dtd"
   xmlns:inkscape="http://www.inkscape.org/namespaces/inkscape"
   inkscape:version="1.0 (4035a4fb49, 2020-05-01)"
   sodipodi:docname="fast-delivery.svg"
   id="svg4"
   version="1.1"
   width="512pt"
   viewBox="0 -104 512 512"
   height="512pt">
  <metadata
     id="metadata10">
    <rdf:RDF>
      <cc:Work
         rdf:about="">
        <dc:format>image/svg+xml</dc:format>
        <dc:type
           rdf:resource="http://purl.org/dc/dcmitype/StillImage" />
      </cc:Work>
    </rdf:RDF>
  </metadata>
  <defs
     id="defs8" />
  <sodipodi:namedview
     inkscape:current-layer="svg4"
     inkscape:window-maximized="1"
     inkscape:window-y="-8"
     inkscape:window-x="-8"
     inkscape:cy="341.33333"
     inkscape:cx="341.33333"
     inkscape:zoom="0.91992188"
     showgrid="false"
     id="namedview6"
     inkscape:window-height="837"
     inkscape:window-width="1600"
     inkscape:pageshadow="2"
     inkscape:pageopacity="0"
     guidetolerance="10"
     gridtolerance="10"
     objecttolerance="10"
     borderopacity="1"
     bordercolor="#666666"
     pagecolor="#ffffff" />
  <path
     style="fill:#0077ff;fill-opacity:1"
     id="path2"
     fill-rule="evenodd"
     d="m365 3.015625c44.390625 10.300781 61.371094 36.257813 82.660156 71.984375h-82.660156zm-259.421875 74.984375c8.691406 0 15 4.195312 15 14 0 8.269531-6.691406 14.976562-14.957031 15h-90.621094c-8.285156 0-15 6.71875-15 15 0 8.285156 6.714844 15 15 15h135c8.363281 0 15.058594 6.710938 15.058594 15 0 8.285156-6.714844 15-15 15h-135.058594c-8.285156 0-15 6.714844-15 15s6.714844 15 15 15h33v45c0 8.285156 6.714844 15 15 15h30.152344c5.375 26.476562 28.769531 46 56.347656 46s50.972656-19.523438 56.347656-46h152.304688c5.375 26.476562 28.769531 46 56.347656 46s50.972656-19.523438 56.347656-46h26.152344c8.285156 0 15-6.714844 15-15v-90c0-44.011719-46.421875-46.933594-46.464844-47h-115.535156c-8.285156 0-15-6.714844-15-15v-90h-272c-8.285156 0-15 6.714844-15 15v33h-18c-8.285156 0-15 6.714844-15 15s6.714844 15 15 15zm328.367187 148.054688c10.738282 10.738281 10.738282 28.15625 0 38.894531-17.273437 17.273437-46.945312 4.984375-46.945312-19.449219 0-24.429688 29.671875-36.71875 46.945312-19.445312zm-265 0c10.738282 10.738281 10.738282 28.15625 0 38.894531-17.273437 17.273437-46.945312 4.984375-46.945312-19.449219 0-24.429688 29.671875-36.71875 46.945312-19.445312zm0 0" />
</svg>
