<?xml version="1.0" encoding="UTF-8" standalone="no"?>
<svg
   xmlns:dc="http://purl.org/dc/elements/1.1/"
   xmlns:cc="http://creativecommons.org/ns#"
   xmlns:rdf="http://www.w3.org/1999/02/22-rdf-syntax-ns#"
   xmlns:svg="http://www.w3.org/2000/svg"
   xmlns="http://www.w3.org/2000/svg"
   xmlns:sodipodi="http://sodipodi.sourceforge.net/DTD/sodipodi-0.dtd"
   xmlns:inkscape="http://www.inkscape.org/namespaces/inkscape"
   inkscape:version="1.0 (4035a4fb49, 2020-05-01)"
   sodipodi:docname="secure.svg"
   xml:space="preserve"
   style="enable-background:new 0 0 229.5 229.5;"
   viewBox="0 0 229.5 229.5"
   y="0px"
   x="0px"
   id="Capa_1"
   version="1.1"><metadata
   id="metadata39"><rdf:RDF><cc:Work
       rdf:about=""><dc:format>image/svg+xml</dc:format><dc:type
         rdf:resource="http://purl.org/dc/dcmitype/StillImage" /></cc:Work></rdf:RDF></metadata><defs
   id="defs37" /><sodipodi:namedview
   inkscape:current-layer="Capa_1"
   inkscape:window-maximized="1"
   inkscape:window-y="-8"
   inkscape:window-x="-8"
   inkscape:cy="114.75"
   inkscape:cx="114.75"
   inkscape:zoom="2.7363834"
   showgrid="false"
   id="namedview35"
   inkscape:window-height="837"
   inkscape:window-width="1600"
   inkscape:pageshadow="2"
   inkscape:pageopacity="0"
   guidetolerance="10"
   gridtolerance="10"
   objecttolerance="10"
   borderopacity="1"
   bordercolor="#666666"
   pagecolor="#ffffff" />
<path
   style="fill:#0077ff;fill-opacity:1"
   id="path2"
   d="M214.419,32.12c-0.412-2.959-2.541-5.393-5.419-6.193L116.76,0.275c-1.315-0.366-2.704-0.366-4.02,0L20.5,25.927  c-2.878,0.8-5.007,3.233-5.419,6.193c-0.535,3.847-12.74,94.743,18.565,139.961c31.268,45.164,77.395,56.738,79.343,57.209  c0.579,0.14,1.169,0.209,1.761,0.209s1.182-0.07,1.761-0.209c1.949-0.471,48.076-12.045,79.343-57.209  C227.159,126.864,214.954,35.968,214.419,32.12z M174.233,85.186l-62.917,62.917c-1.464,1.464-3.384,2.197-5.303,2.197  s-3.839-0.732-5.303-2.197l-38.901-38.901c-1.407-1.406-2.197-3.314-2.197-5.303s0.791-3.897,2.197-5.303l7.724-7.724  c2.929-2.928,7.678-2.929,10.606,0l25.874,25.874l49.89-49.891c1.406-1.407,3.314-2.197,5.303-2.197s3.897,0.79,5.303,2.197  l7.724,7.724C177.162,77.508,177.162,82.257,174.233,85.186z" />
<g
   id="g4">
</g>
<g
   id="g6">
</g>
<g
   id="g8">
</g>
<g
   id="g10">
</g>
<g
   id="g12">
</g>
<g
   id="g14">
</g>
<g
   id="g16">
</g>
<g
   id="g18">
</g>
<g
   id="g20">
</g>
<g
   id="g22">
</g>
<g
   id="g24">
</g>
<g
   id="g26">
</g>
<g
   id="g28">
</g>
<g
   id="g30">
</g>
<g
   id="g32">
</g>
</svg>
