<?xml version="1.0" encoding="UTF-8" standalone="no"?>
<svg
   xmlns:dc="http://purl.org/dc/elements/1.1/"
   xmlns:cc="http://creativecommons.org/ns#"
   xmlns:rdf="http://www.w3.org/1999/02/22-rdf-syntax-ns#"
   xmlns:svg="http://www.w3.org/2000/svg"
   xmlns="http://www.w3.org/2000/svg"
   xmlns:sodipodi="http://sodipodi.sourceforge.net/DTD/sodipodi-0.dtd"
   xmlns:inkscape="http://www.inkscape.org/namespaces/inkscape"
   inkscape:version="1.0 (4035a4fb49, 2020-05-01)"
   sodipodi:docname="twitter.svg"
   id="svg4"
   xml:space="preserve"
   width="100%"
   viewBox="0 0 512 512"
   version="1.1"
   style="fill-rule:evenodd;clip-rule:evenodd;stroke-linejoin:round;stroke-miterlimit:2;"
   height="100%"><metadata
     id="metadata10"><rdf:RDF><cc:Work
         rdf:about=""><dc:format>image/svg+xml</dc:format><dc:type
           rdf:resource="http://purl.org/dc/dcmitype/StillImage" /></cc:Work></rdf:RDF></metadata><defs
     id="defs8" /><sodipodi:namedview
     inkscape:current-layer="svg4"
     inkscape:window-maximized="1"
     inkscape:window-y="-8"
     inkscape:window-x="-8"
     inkscape:cy="256"
     inkscape:cx="256"
     inkscape:zoom="1.2265625"
     showgrid="false"
     id="namedview6"
     inkscape:window-height="837"
     inkscape:window-width="1600"
     inkscape:pageshadow="2"
     inkscape:pageopacity="0"
     guidetolerance="10"
     gridtolerance="10"
     objecttolerance="10"
     borderopacity="1"
     bordercolor="#666666"
     pagecolor="#ffffff" /><path
     style="fill:#ffffff"
     id="path2"
     d="M449.446,0c34.525,0 62.554,28.03 62.554,62.554l0,386.892c0,34.524 -28.03,62.554 -62.554,62.554l-386.892,0c-34.524,0 -62.554,-28.03 -62.554,-62.554l0,-386.892c0,-34.524 28.029,-62.554 62.554,-62.554l386.892,0Zm-253.927,424.544c135.939,0 210.268,-112.643 210.268,-210.268c0,-3.218 0,-6.437 -0.153,-9.502c14.406,-10.421 26.973,-23.448 36.935,-38.314c-13.18,5.824 -27.433,9.809 -42.452,11.648c15.326,-9.196 26.973,-23.602 32.49,-40.92c-14.252,8.429 -30.038,14.56 -46.896,17.931c-13.487,-14.406 -32.644,-23.295 -53.946,-23.295c-40.767,0 -73.87,33.104 -73.87,73.87c0,5.824 0.613,11.494 1.992,16.858c-61.456,-3.065 -115.862,-32.49 -152.337,-77.241c-6.284,10.881 -9.962,23.601 -9.962,37.088c0,25.594 13.027,48.276 32.95,61.456c-12.107,-0.307 -23.448,-3.678 -33.41,-9.196l0,0.92c0,35.862 25.441,65.594 59.311,72.49c-6.13,1.686 -12.72,2.606 -19.464,2.606c-4.751,0 -9.348,-0.46 -13.946,-1.38c9.349,29.426 36.628,50.728 68.965,51.341c-25.287,19.771 -57.164,31.571 -91.8,31.571c-5.977,0 -11.801,-0.306 -17.625,-1.073c32.337,21.15 71.264,33.41 112.95,33.41Z" /></svg>
